<svg width="18" height="19" viewBox="0 0 18 19" fill="none" xmlns="http://www.w3.org/2000/svg">
<path d="M11.6143 15.9277L12.1784 18M12.9785 12.9L15.9854 14.6833M14.5788 9.925L17 9.4167M5.77733 6.95V1M5.46528 4.655C4.90873 4.37741 4.27313 4.33728 3.68954 4.54288C3.10595 4.74847 2.61888 5.18413 2.32876 5.76L1.22458 8.1315C0.965674 8.72181 0.929188 9.39499 1.1226 10.013C1.31601 10.6309 1.72466 11.1469 2.26475 11.455L7.77767 14.5125C7.87165 14.5624 7.97399 14.5922 8.07882 14.6002C8.18365 14.6081 8.28894 14.5941 8.38865 14.5588C8.48837 14.5235 8.58056 14.4677 8.65997 14.3946C8.73938 14.3214 8.80444 14.2324 8.85145 14.1325L11.3367 8.85315C11.4314 8.65159 11.447 8.41832 11.3799 8.20459C11.3128 7.99086 11.1686 7.81415 10.979 7.7133L5.46528 4.655Z" stroke="#D6C125" stroke-width="2" stroke-linecap="round" stroke-linejoin="round"/>
</svg>
